<svg xmlns="http://www.w3.org/2000/svg" width="64" height="64" viewBox="0 0 16.933 16.933"><g transform="translate(0 -280.067)"><path fill="#cc5f5c" d="m 13.57082,284.37707 -1.5875,1.5875 0.1875,0.1875 0.1875,0.1875 1.5875,-1.5875 -0.1875,-0.1875 z" color="#000" font-family="sans-serif" font-weight="400" overflow="visible" white-space="normal" style="line-height:normal;font-variant-ligatures:normal;font-variant-position:normal;font-variant-caps:normal;font-variant-numeric:normal;font-variant-alternates:normal;font-feature-settings:normal;text-indent:0;text-align:start;text-decoration-line:none;text-decoration-style:solid;text-decoration-color:#000;text-transform:none;text-orientation:mixed;shape-padding:0;isolation:auto;mix-blend-mode:normal"/><path fill="#ac504e" d="m 12.53462,285.41309 -0.551387,0.55139 0.187585,0.18759 0.187584,0.18759 0.476459,-0.47646 c -0.09178,-0.15603 -0.191852,-0.30607 -0.300241,-0.45011 z" color="#000" font-family="sans-serif" font-weight="400" overflow="visible" white-space="normal" style="line-height:normal;font-variant-ligatures:normal;font-variant-position:normal;font-variant-caps:normal;font-variant-numeric:normal;font-variant-alternates:normal;font-feature-settings:normal;text-indent:0;text-align:start;text-decoration-line:none;text-decoration-style:solid;text-decoration-color:#000;text-transform:none;text-orientation:mixed;shape-padding:0;isolation:auto;mix-blend-mode:normal"/><path fill="#cc5f5c" d="m 8.99583,282.4479 h 0.52916 v 1.58751 H 8.99583 Z"/><path fill="#ac504e" d="m 8.9958176,282.4479 v 0.74414 c 0.083315,0.0301 0.1714897,0.0496 0.2645833,0.0496 0.093091,0 0.1812687,-0.0196 0.2645834,-0.0496 v -0.74414 z" color="#000" font-family="sans-serif" font-weight="400" overflow="visible" white-space="normal" style="line-height:normal;font-variant-ligatures:normal;font-variant-position:normal;font-variant-caps:normal;font-variant-numeric:normal;font-variant-alternates:normal;font-feature-settings:normal;text-indent:0;text-align:start;text-decoration-line:none;text-decoration-style:solid;text-decoration-color:#000;text-transform:none;text-orientation:mixed;shape-padding:0;isolation:auto;mix-blend-mode:normal"/><path fill="#cc5f5c" d="m 4.68442,283.31873 -0.18652,0.1875 -0.18652,0.1875 1.32194,1.32194 0.1875,-0.18652 0.1875,-0.18652 z" color="#000" font-family="sans-serif" font-weight="400" overflow="visible" white-space="normal" style="line-height:normal;font-variant-ligatures:normal;font-variant-position:normal;font-variant-caps:normal;font-variant-numeric:normal;font-variant-alternates:normal;font-feature-settings:normal;text-indent:0;text-align:start;text-decoration-line:none;text-decoration-style:solid;text-decoration-color:#000;text-transform:none;text-orientation:mixed;shape-padding:0;isolation:auto;mix-blend-mode:normal"/><path fill="#cc5f5c" d="m 3.96874,287.47498 v 0.52916 h -1.5875 v -0.52916 z"/><path fill="#ac504e" d="m 2.3812341,287.47498 v 0.52917 h 0.7441406 c 0.030046,-0.0833 0.049609,-0.1715 0.049609,-0.26458 2.7e-6,-0.0931 -0.019553,-0.18127 -0.049609,-0.26459 z" color="#000" font-family="sans-serif" font-weight="400" overflow="visible" white-space="normal" style="line-height:normal;font-variant-ligatures:normal;font-variant-position:normal;font-variant-caps:normal;font-variant-numeric:normal;font-variant-alternates:normal;font-feature-settings:normal;text-indent:0;text-align:start;text-decoration-line:none;text-decoration-style:solid;text-decoration-color:#000;text-transform:none;text-orientation:mixed;shape-padding:0;isolation:auto;mix-blend-mode:normal"/><path fill="#cc5f5c" d="m 4.57499,290.72707 -1.5875,1.5875 0.1875,0.1875 0.1875,0.1875 1.5875,-1.5875 -0.1875,-0.1875 z" color="#000" font-family="sans-serif" font-weight="400" overflow="visible" white-space="normal" style="line-height:normal;font-variant-ligatures:normal;font-variant-position:normal;font-variant-caps:normal;font-variant-numeric:normal;font-variant-alternates:normal;font-feature-settings:normal;text-indent:0;text-align:start;text-decoration-line:none;text-decoration-style:solid;text-decoration-color:#000;text-transform:none;text-orientation:mixed;shape-padding:0;isolation:auto;mix-blend-mode:normal"/><path fill="#cc5f5c" d="m 7.40832,293.03123 h 0.52917 v 1.58751 H 7.40833 Z"/><path fill="#ac504e" d="m 7.4083176,293.03123 v 0.67128 c 0.1732227,0.0395 0.349377,0.071 0.5291666,0.091 v -0.76224 z" color="#000" font-family="sans-serif" font-weight="400" overflow="visible" white-space="normal" style="line-height:normal;font-variant-ligatures:normal;font-variant-position:normal;font-variant-caps:normal;font-variant-numeric:normal;font-variant-alternates:normal;font-feature-settings:normal;text-indent:0;text-align:start;text-decoration-line:none;text-decoration-style:solid;text-decoration-color:#000;text-transform:none;text-orientation:mixed;shape-padding:0;isolation:auto;mix-blend-mode:normal"/><path fill="#cc5f5c" d="m 11.29999,292.05096 -0.1875,0.18652 -0.1875,0.18653 1.32389,1.32389 0.18652,-0.1875 0.18652,-0.1875 z" color="#000" font-family="sans-serif" font-weight="400" overflow="visible" white-space="normal" style="line-height:normal;font-variant-ligatures:normal;font-variant-position:normal;font-variant-caps:normal;font-variant-numeric:normal;font-variant-alternates:normal;font-feature-settings:normal;text-indent:0;text-align:start;text-decoration-line:none;text-decoration-style:solid;text-decoration-color:#000;text-transform:none;text-orientation:mixed;shape-padding:0;isolation:auto;mix-blend-mode:normal"/><path fill="#ac504e" d="m 11.300069,292.05093 -0.187585,0.18655 -0.187584,0.18656 0.535884,0.53589 c 0.145696,-0.10232 0.283914,-0.21368 0.417029,-0.33126 z" color="#000" font-family="sans-serif" font-weight="400" overflow="visible" white-space="normal" style="line-height:normal;font-variant-ligatures:normal;font-variant-position:normal;font-variant-caps:normal;font-variant-numeric:normal;font-variant-alternates:normal;font-feature-settings:normal;text-indent:0;text-align:start;text-decoration-line:none;text-decoration-style:solid;text-decoration-color:#000;text-transform:none;text-orientation:mixed;shape-padding:0;isolation:auto;mix-blend-mode:normal"/><path fill="#cc5f5c" d="m 14.55207,289.06248 v 0.52917 h -1.5875 v -0.52917 z"/><path fill="#ac504e" d="m 12.964568,289.06248 v 0.52917 h 0.722437 c 0.02924,-0.17341 0.04797,-0.34999 0.05788,-0.52917 z" color="#000" font-family="sans-serif" font-weight="400" overflow="visible" white-space="normal" style="line-height:normal;font-variant-ligatures:normal;font-variant-position:normal;font-variant-caps:normal;font-variant-numeric:normal;font-variant-alternates:normal;font-feature-settings:normal;text-indent:0;text-align:start;text-decoration-line:none;text-decoration-style:solid;text-decoration-color:#000;text-transform:none;text-orientation:mixed;shape-padding:0;isolation:auto;mix-blend-mode:normal"/><path fill="#ff7773" d="m 8.46665,283.77082 c -2.62713,0 -4.76251,2.13538 -4.7625,4.7625 0,2.62712 2.13538,4.7625 4.7625,4.7625 2.62712,0 4.76249,-2.13538 4.7625,-4.7625 0,-2.62712 -2.13538,-4.76249 -4.7625,-4.7625 z" color="#000" font-family="sans-serif" font-weight="400" overflow="visible" white-space="normal" style="line-height:normal;font-variant-ligatures:normal;font-variant-position:normal;font-variant-caps:normal;font-variant-numeric:normal;font-variant-alternates:normal;font-feature-settings:normal;text-indent:0;text-align:start;text-decoration-line:none;text-decoration-style:solid;text-decoration-color:#000;text-transform:none;text-orientation:mixed;shape-padding:0;isolation:auto;mix-blend-mode:normal"/><path fill="#cc5f5c" style="line-height:normal;font-variant-ligatures:normal;font-variant-position:normal;font-variant-caps:normal;font-variant-numeric:normal;font-variant-alternates:normal;font-feature-settings:normal;text-indent:0;text-align:start;text-decoration-line:none;text-decoration-style:solid;text-decoration-color:#000;text-transform:none;text-orientation:mixed;shape-padding:0;isolation:auto;mix-blend-mode:normal" d="m 8.46666,293.29582 c 2.62713,0 4.76251,-2.13538 4.7625,-4.7625 0,-1.44807 -0.65099,-2.74437 -1.67328,-3.61839 0.71164,0.83238 1.14411,1.91018 1.14411,3.08922 10e-6,2.62713 -2.13537,4.7625 -4.7625,4.7625 -1.17905,0 -2.25684,-0.43249 -3.08921,-1.14411 0.87401,1.0223 2.17031,1.67328 3.61838,1.67328 z" color="#000" font-family="sans-serif" font-weight="400" overflow="visible" white-space="normal"/><path fill="#ff928f" d="m 8.4666509,283.77082 c -2.62713,0 -4.7625107,2.13537 -4.7625001,4.7625 0,1.44806 0.6509861,2.74436 1.6732833,3.61839 -0.7116393,-0.83238 -1.1441166,-1.91019 -1.1441166,-3.08923 -1.06e-5,-2.62712 2.1353701,-4.7625 4.7625001,-4.7625 1.1790494,0 2.2568434,0.43249 3.0892164,1.14412 -0.874011,-1.0223 -2.1703105,-1.67328 -3.6183831,-1.67328 z" color="#000" font-family="sans-serif" font-weight="400" overflow="visible" white-space="normal" style="line-height:normal;font-variant-ligatures:normal;font-variant-position:normal;font-variant-caps:normal;font-variant-numeric:normal;font-variant-alternates:normal;font-feature-settings:normal;text-indent:0;text-align:start;text-decoration-line:none;text-decoration-style:solid;text-decoration-color:#000;text-transform:none;text-orientation:mixed;shape-padding:0;isolation:auto;mix-blend-mode:normal"/><path fill="#cc5f5c" d="M7.6729 290.12082c-.43524 0-.79375.35851-.79375.79375-.00001.43525.3585.79376.79375.79375.43524 0 .79375-.35851.79375-.79375-.00001-.43523-.35852-.79374-.79375-.79375zM6.61457 286.68123c-.43524.00001-.79375.35851-.79375.79375.00001.43523.35852.79375.79375.79375.43524 0 .79375-.35851.79375-.79375.00001-.43525-.3585-.79375-.79375-.79375zM9.78957 285.6229c-.43524 0-.79375.35851-.79375.79375 0 .43524.35851.79374.79375.79375.43525 0 .79376-.35851.79375-.79375.00001-.43525-.3585-.79376-.79375-.79375z" color="#000" font-family="sans-serif" font-weight="400" overflow="visible" white-space="normal" style="line-height:normal;font-variant-ligatures:normal;font-variant-position:normal;font-variant-caps:normal;font-variant-numeric:normal;font-variant-alternates:normal;font-feature-settings:normal;text-indent:0;text-align:start;text-decoration-line:none;text-decoration-style:solid;text-decoration-color:#000;text-transform:none;text-orientation:mixed;shape-padding:0;isolation:auto;mix-blend-mode:normal"/><path fill="#ff7773" d="M15.08124 288.53332c-.43525 0-.79375.35851-.79375.79375 0 .43525.3585.79376.79375.79375.43525.00001.79375-.3585.79375-.79375 0-.43524-.3585-.79375-.79375-.79375zM1.85207 286.94582c-.43524.00001-.79375.35851-.79375.79375.00001.43524.35852.79375.79375.79375.43524.00001.79375-.35851.79375-.79375.00001-.43524-.3585-.79375-.79375-.79375zM7.6729 294.35415c-.43525-.00001-.79376.3585-.79375.79375-.00001.43524.3585.79375.79375.79375.43524-.00001.79375-.35851.79375-.79375 0-.43524-.35851-.79375-.79375-.79375z" color="#000" font-family="sans-serif" font-weight="400" overflow="visible" white-space="normal" style="line-height:normal;font-variant-ligatures:normal;font-variant-position:normal;font-variant-caps:normal;font-variant-numeric:normal;font-variant-alternates:normal;font-feature-settings:normal;text-indent:0;text-align:start;text-decoration-line:none;text-decoration-style:solid;text-decoration-color:#000;text-transform:none;text-orientation:mixed;shape-padding:0;isolation:auto;mix-blend-mode:normal"/><path fill="#ff8481" d="m 9.2604,281.12498 c -0.43525,0 -0.79375,0.3585 -0.79375,0.79375 0,0.43524 0.35851,0.79375 0.79375,0.79375 0.43523,0 0.79374,-0.35852 0.79375,-0.79375 0,-0.43524 -0.35851,-0.79374 -0.79375,-0.79375 z" color="#000" font-family="sans-serif" font-weight="400" overflow="visible" white-space="normal" style="line-height:normal;font-variant-ligatures:normal;font-variant-position:normal;font-variant-caps:normal;font-variant-numeric:normal;font-variant-alternates:normal;font-feature-settings:normal;text-indent:0;text-align:start;text-decoration-line:none;text-decoration-style:solid;text-decoration-color:#000;text-transform:none;text-orientation:mixed;shape-padding:0;isolation:auto;mix-blend-mode:normal"/><path fill="#cc5f5c" d="m 10.8479,288.00415 c -0.43525,-10e-6 -0.79376,0.3585 -0.79375,0.79375 0,0.43524 0.35851,0.79375 0.79375,0.79375 0.43523,-1e-5 0.79374,-0.35852 0.79375,-0.79375 0,-0.43524 -0.35851,-0.79375 -0.79375,-0.79375 z" color="#000" font-family="sans-serif" font-weight="400" overflow="visible" white-space="normal" style="line-height:normal;font-variant-ligatures:normal;font-variant-position:normal;font-variant-caps:normal;font-variant-numeric:normal;font-variant-alternates:normal;font-feature-settings:normal;text-indent:0;text-align:start;text-decoration-line:none;text-decoration-style:solid;text-decoration-color:#000;text-transform:none;text-orientation:mixed;shape-padding:0;isolation:auto;mix-blend-mode:normal"/><path fill="#ff7773" d="m 2.9104,291.9729 c -0.43525,-10e-6 -0.79376,0.3585 -0.79375,0.79375 -1e-5,0.43524 0.3585,0.79375 0.79375,0.79375 0.43524,-1e-5 0.79375,-0.35851 0.79375,-0.79375 0,-0.43524 -0.35851,-0.79375 -0.79375,-0.79375 z" color="#000" font-family="sans-serif" font-weight="400" overflow="visible" white-space="normal" style="line-height:normal;font-variant-ligatures:normal;font-variant-position:normal;font-variant-caps:normal;font-variant-numeric:normal;font-variant-alternates:normal;font-feature-settings:normal;text-indent:0;text-align:start;text-decoration-line:none;text-decoration-style:solid;text-decoration-color:#000;text-transform:none;text-orientation:mixed;shape-padding:0;isolation:auto;mix-blend-mode:normal"/><path fill="#994745" d="m 4.6844532,283.31864 -0.1865524,0.18759 -0.1865524,0.18759 0.5260658,0.52607 c 0.1632796,-0.0787 0.2954734,-0.21087 0.3741393,-0.37414 z" color="#000" font-family="sans-serif" font-weight="400" overflow="visible" white-space="normal" style="line-height:normal;font-variant-ligatures:normal;font-variant-position:normal;font-variant-caps:normal;font-variant-numeric:normal;font-variant-alternates:normal;font-feature-settings:normal;text-indent:0;text-align:start;text-decoration-line:none;text-decoration-style:solid;text-decoration-color:#000;text-transform:none;text-orientation:mixed;shape-padding:0;isolation:auto;mix-blend-mode:normal"/><path fill="#ff8481" d="m 4.23332,282.4479 c -0.43524,0 -0.79375,0.35851 -0.79375,0.79375 0,0.43524 0.35851,0.79374 0.79375,0.79375 0.43525,0 0.79375,-0.35851 0.79375,-0.79375 0,-0.43525 -0.3585,-0.79376 -0.79375,-0.79375 z" color="#000" font-family="sans-serif" font-weight="400" overflow="visible" white-space="normal" style="line-height:normal;font-variant-ligatures:normal;font-variant-position:normal;font-variant-caps:normal;font-variant-numeric:normal;font-variant-alternates:normal;font-feature-settings:normal;text-indent:0;text-align:start;text-decoration-line:none;text-decoration-style:solid;text-decoration-color:#000;text-transform:none;text-orientation:mixed;shape-padding:0;isolation:auto;mix-blend-mode:normal"/><path fill="#ff7773" d="m 12.69999,293.03125 c -0.43525,0 -0.79297,0.35772 -0.79297,0.79297 0,0.43524 0.35772,0.79492 0.79297,0.79492 0.43525,0 0.79297,-0.35968 0.79297,-0.79492 0,-0.43525 -0.35772,-0.79297 -0.79297,-0.79297 z" color="#000" font-family="sans-serif" font-weight="400" overflow="visible" white-space="normal" style="line-height:normal;font-variant-ligatures:normal;font-variant-position:normal;font-variant-caps:normal;font-variant-numeric:normal;font-variant-alternates:normal;font-feature-settings:normal;text-indent:0;text-align:start;text-decoration-line:none;text-decoration-style:solid;text-decoration-color:#000;text-transform:none;text-orientation:mixed;shape-padding:0;isolation:auto;mix-blend-mode:normal"/><path fill="#cc5f5c" d="M10.8479 283.77082c-.43525 0-.79375.35851-.79375.79375.00001.43524.35851.79375.79375.79375.43524 0 .79375-.35851.79375-.79375 0-.43524-.3585-.79375-.79375-.79375zM6.0854 291.70832c-.43525 0-.79376.35851-.79375.79375 0 .43524.35851.79375.79375.79375.43523 0 .79374-.35851.79375-.79375 0-.43524-.35851-.79374-.79375-.79375zM9.52499 292.23748c-.43525 0-.79375.3585-.79375.79375 0 .43525.3585.79375.79375.79375.43524 0 .79375-.3585.79375-.79375 0-.43525-.35851-.79375-.79375-.79375zM12.4354 290.12082c-.43525 0-.79376.35851-.79375.79375-.00001.43525.3585.79376.79375.79375.43524 0 .79375-.35851.79375-.79375 0-.43524-.35851-.79374-.79375-.79375zM12.96457 286.94582c-.43524.00001-.79375.35851-.79375.79375 0 .43524.35851.79375.79375.79375.43525.00001.79376-.3585.79375-.79375.00001-.43524-.3585-.79375-.79375-.79375zM7.40832 283.24165c-.43524 0-.79375.35851-.79375.79375.00001.43523.35852.79374.79375.79375.43524 0 .79375-.35851.79375-.79375.00001-.43525-.3585-.79376-.79375-.79375zM4.4979 285.35832c-.43525 0-.79376.3585-.79375.79375 0 .43524.35851.79375.79375.79375.43523 0 .79374-.35852.79375-.79375 0-.43524-.35851-.79374-.79375-.79375zM3.96874 288.7979c-.43525 0-.79376.3585-.79375.79375 0 .43524.35851.79375.79375.79375.43523-.00001.79374-.35852.79375-.79375 0-.43524-.35851-.79375-.79375-.79375z" color="#000" font-family="sans-serif" font-weight="400" overflow="visible" white-space="normal" style="line-height:normal;font-variant-ligatures:normal;font-variant-position:normal;font-variant-caps:normal;font-variant-numeric:normal;font-variant-alternates:normal;font-feature-settings:normal;text-indent:0;text-align:start;text-decoration-line:none;text-decoration-style:solid;text-decoration-color:#000;text-transform:none;text-orientation:mixed;shape-padding:0;isolation:auto;mix-blend-mode:normal"/><path fill="#ff7773" d="m 14.0229,283.50623 c -0.43525,0 -0.79376,0.35851 -0.79375,0.79375 0,0.43524 0.35851,0.79375 0.79375,0.79375 0.43523,-10e-6 0.79374,-0.35851 0.79375,-0.79375 0,-0.43524 -0.35851,-0.79375 -0.79375,-0.79375 z" color="#000" font-family="sans-serif" font-weight="400" overflow="visible" white-space="normal" style="line-height:normal;font-variant-ligatures:normal;font-variant-position:normal;font-variant-caps:normal;font-variant-numeric:normal;font-variant-alternates:normal;font-feature-settings:normal;text-indent:0;text-align:start;text-decoration-line:none;text-decoration-style:solid;text-decoration-color:#000;text-transform:none;text-orientation:mixed;shape-padding:0;isolation:auto;mix-blend-mode:normal"/><path fill="#fea" d="M6.87915 289.32706a.26458416.26458416 0 0 1-.26458.26458.26458416.26458416 0 0 1-.26459-.26458.26458416.26458416 0 0 1 .26459-.26458.26458416.26458416 0 0 1 .26458.26458zM6.08541 290.38539a.26458416.26458416 0 0 1-.26459.26458.26458416.26458416 0 0 1-.26458-.26458.26458416.26458416 0 0 1 .26458-.26459.26458416.26458416 0 0 1 .26459.26459zM9.78958 291.44373a.26458416.26458416 0 0 1-.26459.26458.26458416.26458416 0 0 1-.26458-.26458.26458416.26458416 0 0 1 .26458-.26459.26458416.26458416 0 0 1 .26459.26459zM8.20207 286.15205a.26458166.26458416 0 0 1-.26458.26458.26458166.26458416 0 0 1-.26458-.26458.26458166.26458416 0 0 1 .26458-.26458.26458166.26458416 0 0 1 .26458.26458zM8.20207 288.79789a.26458416.26458416 0 0 1-.26458.26458.26458416.26458416 0 0 1-.26459-.26458.26458416.26458416 0 0 1 .26459-.26458.26458416.26458416 0 0 1 .26458.26458zM8.73124 287.73956a.26458416.26458416 0 0 1-.26458.26458.26458416.26458416 0 0 1-.26459-.26458.26458416.26458416 0 0 1 .26459-.26458.26458416.26458416 0 0 1 .26458.26458zM7.14373 285.62289a.26458416.26458416 0 0 1-.26458.26458.26458416.26458416 0 0 1-.26459-.26458.26458416.26458416 0 0 1 .26459-.26458.26458416.26458416 0 0 1 .26458.26458zM9.26041 289.32706a.26458416.26458416 0 0 1-.26459.26458.26458416.26458416 0 0 1-.26458-.26458.26458416.26458416 0 0 1 .26458-.26459.26458416.26458416 0 0 1 .26459.26459zM9.78958 290.38539a.26458416.26458416 0 0 1-.26459.26458.26458416.26458416 0 0 1-.26458-.26458.26458416.26458416 0 0 1 .26458-.26459.26458416.26458416 0 0 1 .26459.26459zM10.8479 290.38539a.26458416.26458416 0 0 1-.26459.26458.26458416.26458416 0 0 1-.26458-.26458.26458416.26458416 0 0 1 .26458-.26459.26458416.26458416 0 0 1 .26459.26459zM11.64166 287.2104a.26458416.26458416 0 0 1-.26459.26458.26458416.26458416 0 0 1-.26458-.26458.26458416.26458416 0 0 1 .26458-.26459.26458416.26458416 0 0 1 .26459.26459zM5.55624 288.53331a.26458416.26458416 0 0 1-.26459.26458.26458416.26458416 0 0 1-.26458-.26458.26458416.26458416 0 0 1 .26458-.26459.26458416.26458416 0 0 1 .26459.26459z"/><path fill="#e66b68" d="M4.23332 284.0354c.43524 0 .79375-.35851.79375-.79375 0-.28498-.15515-.5348-.38344-.6749.0739.12039.11885.26006.11885.41032 0 .43524-.35851.79375-.79375.79375-.15027 0-.28993-.045-.41031-.11885.14009.22828.38992.38343.6749.38343zM9.2604 282.71248c.43524 0 .79375-.35851.79375-.79375 0-.28498-.15515-.5348-.38343-.6749.0739.12039.11886.26006.11886.41032 0 .43524-.35851.79375-.79375.79375-.15027 0-.28994-.045-.41031-.11885.14009.22828.38991.38343.67488.38343zM1.85207 288.53331c.43524 0 .79375-.35851.79375-.79375 0-.28498-.15515-.5348-.38343-.6749.0739.12039.11886.26006.11886.41032 0 .43524-.35851.79375-.79375.79375-.15027 0-.28994-.045-.41031-.11885.14009.22828.38991.38343.67488.38343zM2.9104 293.5604c.43524 0 .79375-.35851.79375-.79375 0-.28498-.15515-.5348-.38343-.6749.0739.12039.11886.26006.11886.41032 0 .43524-.35851.79375-.79375.79375-.15027 0-.28994-.045-.41031-.11885.14009.22828.38991.38343.67488.38343zM7.6729 295.94165c.43524 0 .79375-.35851.79375-.79375 0-.28498-.15515-.5348-.38343-.6749.0739.12039.11886.26006.11886.41032 0 .43524-.35851.79375-.79375.79375-.15027 0-.28994-.045-.41031-.11885.14009.22828.38991.38343.67488.38343zM12.69999 294.61873c.43524 0 .79375-.35851.79375-.79375 0-.28498-.15515-.5348-.38343-.6749.0739.12039.11886.26006.11886.41032 0 .43524-.35851.79375-.79375.79375-.15027 0-.28994-.045-.41031-.11885.14009.22828.38991.38343.67488.38343zM15.08124 290.12081c.43524 0 .79375-.35851.79375-.79375 0-.28498-.15515-.5348-.38343-.6749.0739.12039.11886.26006.11886.41032 0 .43524-.35851.79375-.79375.79375-.15027 0-.28994-.045-.41031-.11885.14009.22828.38991.38343.67488.38343zM14.0229 285.09373c.43524 0 .79375-.35851.79375-.79375 0-.28498-.15515-.5348-.38343-.6749.0739.12039.11886.26006.11886.41032 0 .43524-.35851.79375-.79375.79375-.15027 0-.28994-.045-.41031-.11885.14009.22828.38991.38343.67488.38343z" color="#000" font-family="sans-serif" font-weight="400" overflow="visible" white-space="normal" style="line-height:normal;font-variant-ligatures:normal;font-variant-position:normal;font-variant-caps:normal;font-variant-numeric:normal;font-variant-alternates:normal;font-feature-settings:normal;text-indent:0;text-align:start;text-decoration-line:none;text-decoration-style:solid;text-decoration-color:#000;text-transform:none;text-orientation:mixed;shape-padding:0;isolation:auto;mix-blend-mode:normal"/><path fill="#ac504e" style="line-height:normal;font-variant-ligatures:normal;font-variant-position:normal;font-variant-caps:normal;font-variant-numeric:normal;font-variant-alternates:normal;font-feature-settings:normal;text-indent:0;text-align:start;text-decoration-line:none;text-decoration-style:solid;text-decoration-color:#000;text-transform:none;text-orientation:mixed;shape-padding:0;isolation:auto;mix-blend-mode:normal" d="M4.4979 286.94582c.43524 0 .79375-.35851.79375-.79375 0-.28498-.15515-.5348-.38344-.6749.0739.12039.11885.26006.11885.41032 0 .43524-.35851.79375-.79375.79375-.15027 0-.28993-.045-.41031-.11885.14009.22828.38992.38343.6749.38343zM6.61457 288.26873c.43524 0 .79375-.35851.79375-.79375 0-.28498-.15515-.5348-.38344-.6749.0739.12039.11885.26006.11885.41032 0 .43524-.35851.79375-.79375.79375-.15027 0-.28993-.045-.41031-.11885.14009.22828.38992.38343.6749.38343zM3.96874 290.38539c.43524 0 .79375-.35851.79375-.79375 0-.28498-.15515-.5348-.38344-.6749.0739.12039.11885.26006.11885.41032 0 .43524-.35851.79375-.79375.79375-.15027 0-.28993-.045-.41031-.11885.14009.22828.38992.38343.6749.38343zM7.6729 291.70831c.43524 0 .79375-.35851.79375-.79375 0-.28498-.15515-.5348-.38344-.6749.0739.12039.11885.26006.11885.41032 0 .43524-.35851.79375-.79375.79375-.15027 0-.28993-.045-.41031-.11885.14009.22828.38992.38343.6749.38343zM6.0854 293.29581c.43524 0 .79375-.35851.79375-.79375 0-.28498-.15515-.5348-.38344-.6749.0739.12039.11885.26006.11885.41032 0 .43524-.35851.79375-.79375.79375-.15027 0-.28993-.045-.41031-.11885.14009.22828.38992.38343.6749.38343zM9.52499 293.82498c.43524 0 .79375-.35851.79375-.79375 0-.28498-.15515-.5348-.38344-.6749.0739.12039.11885.26006.11885.41032 0 .43524-.35851.79375-.79375.79375-.15027 0-.28993-.045-.41031-.11885.14009.22828.38992.38343.6749.38343zM12.4354 291.70831c.43524 0 .79375-.35851.79375-.79375 0-.28498-.15515-.5348-.38344-.6749.0739.12039.11885.26006.11885.41032 0 .43524-.35851.79375-.79375.79375-.15027 0-.28993-.045-.41031-.11885.14009.22828.38992.38343.6749.38343zM12.96457 288.53331c.43524 0 .79375-.35851.79375-.79375 0-.28498-.15515-.5348-.38344-.6749.0739.12039.11885.26006.11885.41032 0 .43524-.35851.79375-.79375.79375-.15027 0-.28993-.045-.41031-.11885.14009.22828.38992.38343.6749.38343zM10.8479 289.59165c.43524 0 .79375-.35851.79375-.79375 0-.28498-.15515-.5348-.38344-.6749.0739.12039.11885.26006.11885.41032 0 .43524-.35851.79375-.79375.79375-.15027 0-.28993-.045-.41031-.11885.14009.22828.38992.38343.6749.38343zM9.78957 287.2104c.43524 0 .79375-.35851.79375-.79375 0-.28498-.15515-.5348-.38344-.6749.0739.12039.11885.26006.11885.41032 0 .43524-.35851.79375-.79375.79375-.15027 0-.28993-.045-.41031-.11885.14009.22828.38992.38343.6749.38343zM10.8479 285.35831c.43524 0 .79375-.35851.79375-.79375 0-.28498-.15515-.5348-.38344-.6749.0739.12039.11885.26006.11885.41032 0 .43524-.35851.79375-.79375.79375-.15027 0-.28993-.045-.41031-.11885.14009.22828.38992.38343.6749.38343zM7.40832 284.82915c.43524 0 .79375-.35851.79375-.79375 0-.28498-.15515-.5348-.38344-.6749.0739.12039.11885.26006.11885.41032 0 .43524-.35851.79375-.79375.79375-.15027 0-.28993-.045-.41031-.11885.14009.22828.38992.38343.6749.38343z" color="#000" font-family="sans-serif" font-weight="400" overflow="visible" white-space="normal"/></g></svg>